# xmcd
#
# Track frame offsets: 
#        150
#        16748
#        29350
#        44632
#        59004
#        70269
#        82570
#        96269
#        107844
#        125957
#        144052
#        157276
#        174465
#        189804
#        207631
#
# Disc length: 2946 seconds
#
# Revision: 6
# Processed by: cddbd v1.5.2PL0 Copyright (c) Steve Scherf et al.
# Submitted via: ExactAudioCopy v0.99pb5
#
DISCID=d20b800f
DTITLE=Various Artist - Classic Country - TL 626-25 - 1989 - 1992 - CD 2
DYEAR=2001
DGENRE=Country
TTITLE0=Alabama - Jukebox in my mind
TTITLE1=Lorrie Morgan - What part of no
TTITLE2=Joe Diffie - Home
TTITLE3=Suzy Bogguss - Drive south
TTITLE4=Rodney Crowell - Above and beyond (the call of love)
TTITLE5=Travis Tritt feat. Marty Stuart - The whiskey ain't workin'
TTITLE6=Shenandoah - The church on Cumberland Road
TTITLE7=Patty Loveless - Timber I'm falling in love
TTITLE8=Vince Gill - I still believe in you
TTITLE9=Collin Raye - Little rock
TTITLE10=John Anderson - Straight tequila night
TTITLE11=Conway Twitty - Crazy in love
TTITLE12=Ricky van Shelton - Living proof
TTITLE13=Doug Stone - Too busy being in love
TTITLE14=Hal Ketchum - Small town Saturday night
EXTD=
EXTT0=
EXTT1=
EXTT2=
EXTT3=
EXTT4=
EXTT5=
EXTT6=
EXTT7=
EXTT8=
EXTT9=
EXTT10=
EXTT11=
EXTT12=
EXTT13=
EXTT14=
PLAYORDER=
